<?xml version="1.0" encoding="UTF-8"?>
<svg xmlns="http://www.w3.org/2000/svg" viewBox="0 0 1200 920" role="img" aria-labelledby="title desc">
<title id="title">Model-agnostic spectrum across the open-harness-atlas registry</title>
<desc id="desc">A stacked histogram showing how 833 open-source harnesses distribute across the model_agnostic_score axis (0 = provider-locked through 5 = fully portable), with a six-category small-multiples grid below comparing each category's distribution.</desc>
<style>.body{font-family:"Inter","Helvetica Neue",Arial,sans-serif;}.title{font-size:20px;font-weight:700;fill:#1f3a5f;}.sub{font-size:12px;font-weight:400;fill:#4a5d75;}.h2{font-size:13px;font-weight:600;fill:#1f3a5f;}.axis{font-size:11px;fill:#4a5d75;}.axis-bold{font-size:11px;font-weight:600;fill:#1f3a5f;text-anchor:middle;}.bar-total{font-size:11px;font-weight:700;fill:#1f3a5f;text-anchor:middle;}.seg-label{font-size:10px;font-weight:600;fill:#ffffff;text-anchor:middle;}.mini-title{font-size:11px;font-weight:600;fill:#1f3a5f;}.mini-count{font-size:10px;fill:#6b7a8c;}.mini-axis{font-size:9px;fill:#6b7a8c;text-anchor:middle;}.mini-bar-label{font-size:9px;font-weight:600;fill:#1f3a5f;text-anchor:middle;}.legend-text{font-size:11px;fill:#1f3a5f;}.footer{font-size:10px;fill:#6b7a8c;text-anchor:middle;}</style>
<rect width="1200" height="920" fill="#ffffff"/>
<text x="40" y="38" class="body title">Model-agnostic spectrum</text>
<text x="40" y="58" class="body sub">833 open-source harnesses scored 0 (provider-locked) through 5 (fully portable). Auto-generated from registry/*/*.yaml. Conservative defaults (3) reflect entries pending manual review.</text>
<line x1="140" y1="330.0" x2="1160" y2="330.0" stroke="#e6e9ee" stroke-width="1"/>
<text x="130" y="334.0" class="body axis" text-anchor="end">0</text>
<line x1="140" y1="275.0" x2="1160" y2="275.0" stroke="#e6e9ee" stroke-width="1"/>
<text x="130" y="279.0" class="body axis" text-anchor="end">100</text>
<line x1="140" y1="220.0" x2="1160" y2="220.0" stroke="#e6e9ee" stroke-width="1"/>
<text x="130" y="224.0" class="body axis" text-anchor="end">200</text>
<line x1="140" y1="165.0" x2="1160" y2="165.0" stroke="#e6e9ee" stroke-width="1"/>
<text x="130" y="169.0" class="body axis" text-anchor="end">300</text>
<line x1="140" y1="110.0" x2="1160" y2="110.0" stroke="#e6e9ee" stroke-width="1"/>
<text x="130" y="114.0" class="body axis" text-anchor="end">400</text>
<text x="90" y="220.0" class="body sub" transform="rotate(-90 90,220.0)" text-anchor="middle">entries</text>
<rect x="175.0" y="328.4" width="100" height="1.65" fill="#1f3a5f"/>
<rect x="175.0" y="324.5" width="100" height="3.85" fill="#d68910"/>
<rect x="175.0" y="323.4" width="100" height="1.10" fill="#28a745"/>
<rect x="175.0" y="321.8" width="100" height="1.65" fill="#c0392b"/>
<rect x="175.0" y="321.2" width="100" height="0.55" fill="#3498db"/>
<rect x="175.0" y="320.1" width="100" height="1.10" fill="#7d3c98"/>
<text x="225.0" y="314.1" class="body bar-total">18</text>
<text x="225.0" y="348.0" class="body axis-bold">0</text>
<rect x="345.0" y="329.4" width="100" height="0.55" fill="#d68910"/>
<rect x="345.0" y="327.2" width="100" height="2.20" fill="#28a745"/>
<rect x="345.0" y="326.1" width="100" height="1.10" fill="#c0392b"/>
<rect x="345.0" y="325.6" width="100" height="0.55" fill="#7d3c98"/>
<text x="395.0" y="319.6" class="body bar-total">8</text>
<text x="395.0" y="348.0" class="body axis-bold">1</text>
<rect x="515.0" y="328.4" width="100" height="1.65" fill="#1f3a5f"/>
<rect x="515.0" y="326.7" width="100" height="1.65" fill="#d68910"/>
<rect x="515.0" y="319.0" width="100" height="7.70" fill="#28a745"/>
<rect x="515.0" y="318.5" width="100" height="0.55" fill="#c0392b"/>
<rect x="515.0" y="317.9" width="100" height="0.55" fill="#3498db"/>
<rect x="515.0" y="317.4" width="100" height="0.55" fill="#7d3c98"/>
<text x="565.0" y="311.4" class="body bar-total">23</text>
<text x="565.0" y="348.0" class="body axis-bold">2</text>
<rect x="685.0" y="310.8" width="100" height="19.25" fill="#1f3a5f"/>
<text x="735.0" y="324.4" class="body seg-label">35</text>
<rect x="685.0" y="252.4" width="100" height="58.30" fill="#d68910"/>
<text x="735.0" y="285.6" class="body seg-label">106</text>
<rect x="685.0" y="206.8" width="100" height="45.65" fill="#28a745"/>
<text x="735.0" y="233.6" class="body seg-label">83</text>
<rect x="685.0" y="187.5" width="100" height="19.25" fill="#c0392b"/>
<text x="735.0" y="201.2" class="body seg-label">35</text>
<rect x="685.0" y="179.8" width="100" height="7.70" fill="#3498db"/>
<rect x="685.0" y="161.1" width="100" height="18.70" fill="#7d3c98"/>
<text x="735.0" y="174.5" class="body seg-label">34</text>
<text x="735.0" y="155.2" class="body bar-total">307</text>
<text x="735.0" y="348.0" class="body axis-bold">3</text>
<rect x="855.0" y="303.1" width="100" height="26.95" fill="#1f3a5f"/>
<text x="905.0" y="320.5" class="body seg-label">49</text>
<rect x="855.0" y="240.9" width="100" height="62.15" fill="#d68910"/>
<text x="905.0" y="276.0" class="body seg-label">113</text>
<rect x="855.0" y="193.1" width="100" height="47.85" fill="#28a745"/>
<text x="905.0" y="221.0" class="body seg-label">87</text>
<rect x="855.0" y="166.7" width="100" height="26.40" fill="#c0392b"/>
<text x="905.0" y="183.9" class="body seg-label">48</text>
<rect x="855.0" y="138.6" width="100" height="28.05" fill="#3498db"/>
<text x="905.0" y="156.6" class="body seg-label">51</text>
<rect x="855.0" y="138.1" width="100" height="0.55" fill="#7d3c98"/>
<text x="905.0" y="132.0" class="body bar-total">349</text>
<text x="905.0" y="348.0" class="body axis-bold">4</text>
<rect x="1025.0" y="323.4" width="100" height="6.60" fill="#1f3a5f"/>
<rect x="1025.0" y="316.8" width="100" height="6.60" fill="#d68910"/>
<rect x="1025.0" y="308.0" width="100" height="8.80" fill="#28a745"/>
<rect x="1025.0" y="297.0" width="100" height="11.00" fill="#c0392b"/>
<rect x="1025.0" y="277.7" width="100" height="19.25" fill="#3498db"/>
<text x="1075.0" y="291.4" class="body seg-label">35</text>
<rect x="1025.0" y="259.6" width="100" height="18.15" fill="#7d3c98"/>
<text x="1075.0" y="272.7" class="body seg-label">33</text>
<text x="1075.0" y="253.6" class="body bar-total">128</text>
<text x="1075.0" y="348.0" class="body axis-bold">5</text>
<text x="225.0" y="362.0" class="body axis" text-anchor="middle">locked</text>
<text x="395.0" y="362.0" class="body axis" text-anchor="middle">single primary</text>
<text x="565.0" y="362.0" class="body axis" text-anchor="middle">multi-API</text>
<text x="735.0" y="362.0" class="body axis" text-anchor="middle">+ local opt</text>
<text x="905.0" y="362.0" class="body axis" text-anchor="middle">swap by config</text>
<text x="1075.0" y="362.0" class="body axis" text-anchor="middle">config-only</text>
<text x="40" y="380" class="body h2">Per-category distribution <tspan class="sub">(each row's bar heights are independently scaled — read shape, not magnitude. Aligned x-axis lets you compare which categories cluster at the same model_agnostic_score.)</tspan></text>
<rect x="40" y="400.0" width="1120" height="56.0" rx="6" fill="#f7f9fc" stroke="#e6e9ee" stroke-width="1"/>
<rect x="40" y="400.0" width="6" height="56.0" rx="3" fill="#1f3a5f"/>
<text x="56" y="424.0" class="body mini-title">governance</text>
<text x="56" y="440.0" class="body mini-count">102 entries</text>
<rect x="195.8" y="446.00" width="100.0" height="4.00" rx="2" fill="#1f3a5f" opacity="0.85"/>
<text x="245.8" y="442.0" class="body mini-bar-label">3</text>
<line x1="347.5" y1="449.00" x2="447.5" y2="449.00" stroke="#cfd6df" stroke-width="2"/>
<rect x="499.2" y="446.00" width="100.0" height="4.00" rx="2" fill="#1f3a5f" opacity="0.85"/>
<text x="549.2" y="442.0" class="body mini-bar-label">3</text>
<rect x="650.8" y="428.57" width="100.0" height="21.43" rx="2" fill="#1f3a5f" opacity="0.85"/>
<text x="700.8" y="424.6" class="body mini-bar-label">35</text>
<rect x="802.5" y="420.00" width="100.0" height="30.00" rx="2" fill="#1f3a5f" opacity="0.85"/>
<text x="852.5" y="416.0" class="body mini-bar-label">49</text>
<rect x="954.2" y="442.65" width="100.0" height="7.35" rx="2" fill="#1f3a5f" opacity="0.85"/>
<text x="1004.2" y="438.7" class="body mini-bar-label">12</text>
<text x="1148" y="432.0" class="body mini-count" text-anchor="end">peak 49</text>
<rect x="40" y="470.0" width="1120" height="56.0" rx="6" fill="#f7f9fc" stroke="#e6e9ee" stroke-width="1"/>
<rect x="40" y="470.0" width="6" height="56.0" rx="3" fill="#d68910"/>
<text x="56" y="494.0" class="body mini-title">agent</text>
<text x="56" y="510.0" class="body mini-count">242 entries</text>
<rect x="195.8" y="516.00" width="100.0" height="4.00" rx="2" fill="#d68910" opacity="0.85"/>
<text x="245.8" y="512.0" class="body mini-bar-label">7</text>
<rect x="347.5" y="516.00" width="100.0" height="4.00" rx="2" fill="#d68910" opacity="0.85"/>
<text x="397.5" y="512.0" class="body mini-bar-label">1</text>
<rect x="499.2" y="516.00" width="100.0" height="4.00" rx="2" fill="#d68910" opacity="0.85"/>
<text x="549.2" y="512.0" class="body mini-bar-label">3</text>
<rect x="650.8" y="491.86" width="100.0" height="28.14" rx="2" fill="#d68910" opacity="0.85"/>
<text x="700.8" y="487.9" class="body mini-bar-label">106</text>
<rect x="802.5" y="490.00" width="100.0" height="30.00" rx="2" fill="#d68910" opacity="0.85"/>
<text x="852.5" y="486.0" class="body mini-bar-label">113</text>
<rect x="954.2" y="516.00" width="100.0" height="4.00" rx="2" fill="#d68910" opacity="0.85"/>
<text x="1004.2" y="512.0" class="body mini-bar-label">12</text>
<text x="1148" y="502.0" class="body mini-count" text-anchor="end">peak 113</text>
<rect x="40" y="540.0" width="1120" height="56.0" rx="6" fill="#f7f9fc" stroke="#e6e9ee" stroke-width="1"/>
<rect x="40" y="540.0" width="6" height="56.0" rx="3" fill="#28a745"/>
<text x="56" y="564.0" class="body mini-title">eval</text>
<text x="56" y="580.0" class="body mini-count">206 entries</text>
<rect x="195.8" y="586.00" width="100.0" height="4.00" rx="2" fill="#28a745" opacity="0.85"/>
<text x="245.8" y="582.0" class="body mini-bar-label">2</text>
<rect x="347.5" y="586.00" width="100.0" height="4.00" rx="2" fill="#28a745" opacity="0.85"/>
<text x="397.5" y="582.0" class="body mini-bar-label">4</text>
<rect x="499.2" y="585.17" width="100.0" height="4.83" rx="2" fill="#28a745" opacity="0.85"/>
<text x="549.2" y="581.2" class="body mini-bar-label">14</text>
<rect x="650.8" y="561.38" width="100.0" height="28.62" rx="2" fill="#28a745" opacity="0.85"/>
<text x="700.8" y="557.4" class="body mini-bar-label">83</text>
<rect x="802.5" y="560.00" width="100.0" height="30.00" rx="2" fill="#28a745" opacity="0.85"/>
<text x="852.5" y="556.0" class="body mini-bar-label">87</text>
<rect x="954.2" y="584.48" width="100.0" height="5.52" rx="2" fill="#28a745" opacity="0.85"/>
<text x="1004.2" y="580.5" class="body mini-bar-label">16</text>
<text x="1148" y="572.0" class="body mini-count" text-anchor="end">peak 87</text>
<rect x="40" y="610.0" width="1120" height="56.0" rx="6" fill="#f7f9fc" stroke="#e6e9ee" stroke-width="1"/>
<rect x="40" y="610.0" width="6" height="56.0" rx="3" fill="#c0392b"/>
<text x="56" y="634.0" class="body mini-title">redteam</text>
<text x="56" y="650.0" class="body mini-count">109 entries</text>
<rect x="195.8" y="656.00" width="100.0" height="4.00" rx="2" fill="#c0392b" opacity="0.85"/>
<text x="245.8" y="652.0" class="body mini-bar-label">3</text>
<rect x="347.5" y="656.00" width="100.0" height="4.00" rx="2" fill="#c0392b" opacity="0.85"/>
<text x="397.5" y="652.0" class="body mini-bar-label">2</text>
<rect x="499.2" y="656.00" width="100.0" height="4.00" rx="2" fill="#c0392b" opacity="0.85"/>
<text x="549.2" y="652.0" class="body mini-bar-label">1</text>
<rect x="650.8" y="638.12" width="100.0" height="21.88" rx="2" fill="#c0392b" opacity="0.85"/>
<text x="700.8" y="634.1" class="body mini-bar-label">35</text>
<rect x="802.5" y="630.00" width="100.0" height="30.00" rx="2" fill="#c0392b" opacity="0.85"/>
<text x="852.5" y="626.0" class="body mini-bar-label">48</text>
<rect x="954.2" y="647.50" width="100.0" height="12.50" rx="2" fill="#c0392b" opacity="0.85"/>
<text x="1004.2" y="643.5" class="body mini-bar-label">20</text>
<text x="1148" y="642.0" class="body mini-count" text-anchor="end">peak 48</text>
<rect x="40" y="680.0" width="1120" height="56.0" rx="6" fill="#f7f9fc" stroke="#e6e9ee" stroke-width="1"/>
<rect x="40" y="680.0" width="6" height="56.0" rx="3" fill="#3498db"/>
<text x="56" y="704.0" class="body mini-title">routing</text>
<text x="56" y="720.0" class="body mini-count">102 entries</text>
<rect x="195.8" y="726.00" width="100.0" height="4.00" rx="2" fill="#3498db" opacity="0.85"/>
<text x="245.8" y="722.0" class="body mini-bar-label">1</text>
<line x1="347.5" y1="729.00" x2="447.5" y2="729.00" stroke="#cfd6df" stroke-width="2"/>
<rect x="499.2" y="726.00" width="100.0" height="4.00" rx="2" fill="#3498db" opacity="0.85"/>
<text x="549.2" y="722.0" class="body mini-bar-label">1</text>
<rect x="650.8" y="721.76" width="100.0" height="8.24" rx="2" fill="#3498db" opacity="0.85"/>
<text x="700.8" y="717.8" class="body mini-bar-label">14</text>
<rect x="802.5" y="700.00" width="100.0" height="30.00" rx="2" fill="#3498db" opacity="0.85"/>
<text x="852.5" y="696.0" class="body mini-bar-label">51</text>
<rect x="954.2" y="709.41" width="100.0" height="20.59" rx="2" fill="#3498db" opacity="0.85"/>
<text x="1004.2" y="705.4" class="body mini-bar-label">35</text>
<text x="1148" y="712.0" class="body mini-count" text-anchor="end">peak 51</text>
<rect x="40" y="750.0" width="1120" height="56.0" rx="6" fill="#f7f9fc" stroke="#e6e9ee" stroke-width="1"/>
<rect x="40" y="750.0" width="6" height="56.0" rx="3" fill="#7d3c98"/>
<text x="56" y="774.0" class="body mini-title">education</text>
<text x="56" y="790.0" class="body mini-count">72 entries</text>
<rect x="195.8" y="796.00" width="100.0" height="4.00" rx="2" fill="#7d3c98" opacity="0.85"/>
<text x="245.8" y="792.0" class="body mini-bar-label">2</text>
<rect x="347.5" y="796.00" width="100.0" height="4.00" rx="2" fill="#7d3c98" opacity="0.85"/>
<text x="397.5" y="792.0" class="body mini-bar-label">1</text>
<rect x="499.2" y="796.00" width="100.0" height="4.00" rx="2" fill="#7d3c98" opacity="0.85"/>
<text x="549.2" y="792.0" class="body mini-bar-label">1</text>
<rect x="650.8" y="770.00" width="100.0" height="30.00" rx="2" fill="#7d3c98" opacity="0.85"/>
<text x="700.8" y="766.0" class="body mini-bar-label">34</text>
<rect x="802.5" y="796.00" width="100.0" height="4.00" rx="2" fill="#7d3c98" opacity="0.85"/>
<text x="852.5" y="792.0" class="body mini-bar-label">1</text>
<rect x="954.2" y="770.88" width="100.0" height="29.12" rx="2" fill="#7d3c98" opacity="0.85"/>
<text x="1004.2" y="766.9" class="body mini-bar-label">33</text>
<text x="1148" y="782.0" class="body mini-count" text-anchor="end">peak 34</text>
<text x="245.8" y="820.0" class="body mini-axis">0</text>
<text x="397.5" y="820.0" class="body mini-axis">1</text>
<text x="549.2" y="820.0" class="body mini-axis">2</text>
<text x="700.8" y="820.0" class="body mini-axis">3</text>
<text x="852.5" y="820.0" class="body mini-axis">4</text>
<text x="1004.2" y="820.0" class="body mini-axis">5</text>
<text x="625.0" y="832.0" class="body axis" text-anchor="middle">model_agnostic_score</text>
<text x="600" y="904" class="body footer">CC BY-SA 4.0 — open-harness-atlas · generated by scripts/build_visuals.py::_build_spectrum</text>
</svg>
