<?xml version="1.0" encoding="UTF-8"?>
<svg xmlns="http://www.w3.org/2000/svg" viewBox="0 0 1200 720" role="img" aria-labelledby="title desc">
<title id="title">Model-agnostic spectrum across the open-harness-atlas registry</title>
<desc id="desc">A stacked histogram showing how 816 open-source harnesses distribute across the model_agnostic_score axis (0 = provider-locked through 5 = fully portable), with a six-category small-multiples grid below comparing each category's distribution.</desc>
<style>.body{font-family:"Inter","Helvetica Neue",Arial,sans-serif;}.title{font-size:20px;font-weight:700;fill:#1f3a5f;}.sub{font-size:12px;font-weight:400;fill:#4a5d75;}.h2{font-size:13px;font-weight:600;fill:#1f3a5f;}.axis{font-size:11px;fill:#4a5d75;}.axis-bold{font-size:11px;font-weight:600;fill:#1f3a5f;text-anchor:middle;}.bar-total{font-size:11px;font-weight:700;fill:#1f3a5f;text-anchor:middle;}.seg-label{font-size:10px;font-weight:600;fill:#ffffff;text-anchor:middle;}.mini-title{font-size:11px;font-weight:600;fill:#1f3a5f;}.mini-count{font-size:10px;fill:#6b7a8c;}.mini-axis{font-size:9px;fill:#6b7a8c;text-anchor:middle;}.mini-bar-label{font-size:9px;font-weight:600;fill:#1f3a5f;text-anchor:middle;}.legend-text{font-size:11px;fill:#1f3a5f;}.footer{font-size:10px;fill:#6b7a8c;text-anchor:middle;}</style>
<rect width="1200" height="720" fill="#ffffff"/>
<text x="40" y="38" class="body title">Model-agnostic spectrum</text>
<text x="40" y="58" class="body sub">816 open-source harnesses scored 0 (provider-locked) through 5 (fully portable). Auto-generated from registry/*/*.yaml. Conservative defaults (3) reflect entries pending manual review.</text>
<line x1="140" y1="330.0" x2="1160" y2="330.0" stroke="#e6e9ee" stroke-width="1"/>
<text x="130" y="334.0" class="body axis" text-anchor="end">0</text>
<line x1="140" y1="286.0" x2="1160" y2="286.0" stroke="#e6e9ee" stroke-width="1"/>
<text x="130" y="290.0" class="body axis" text-anchor="end">100</text>
<line x1="140" y1="242.0" x2="1160" y2="242.0" stroke="#e6e9ee" stroke-width="1"/>
<text x="130" y="246.0" class="body axis" text-anchor="end">200</text>
<line x1="140" y1="198.0" x2="1160" y2="198.0" stroke="#e6e9ee" stroke-width="1"/>
<text x="130" y="202.0" class="body axis" text-anchor="end">300</text>
<line x1="140" y1="154.0" x2="1160" y2="154.0" stroke="#e6e9ee" stroke-width="1"/>
<text x="130" y="158.0" class="body axis" text-anchor="end">400</text>
<line x1="140" y1="110.0" x2="1160" y2="110.0" stroke="#e6e9ee" stroke-width="1"/>
<text x="130" y="114.0" class="body axis" text-anchor="end">500</text>
<text x="90" y="220.0" class="body sub" transform="rotate(-90 90,220.0)" text-anchor="middle">entries</text>
<text x="225.0" y="348.0" class="body axis-bold">0</text>
<rect x="345.0" y="329.6" width="100" height="0.44" fill="#d68910"/>
<rect x="345.0" y="329.1" width="100" height="0.44" fill="#7d3c98"/>
<text x="395.0" y="323.1" class="body bar-total">2</text>
<text x="395.0" y="348.0" class="body axis-bold">1</text>
<rect x="515.0" y="329.6" width="100" height="0.44" fill="#d68910"/>
<rect x="515.0" y="329.1" width="100" height="0.44" fill="#3498db"/>
<text x="565.0" y="323.1" class="body bar-total">2</text>
<text x="565.0" y="348.0" class="body axis-bold">2</text>
<rect x="685.0" y="304.0" width="100" height="25.96" fill="#1f3a5f"/>
<text x="735.0" y="321.0" class="body seg-label">59</text>
<rect x="685.0" y="229.2" width="100" height="74.80" fill="#d68910"/>
<text x="735.0" y="270.6" class="body seg-label">170</text>
<rect x="685.0" y="175.1" width="100" height="54.12" fill="#28a745"/>
<text x="735.0" y="206.2" class="body seg-label">123</text>
<rect x="685.0" y="150.0" width="100" height="25.08" fill="#c0392b"/>
<text x="735.0" y="166.6" class="body seg-label">57</text>
<rect x="685.0" y="133.3" width="100" height="16.72" fill="#3498db"/>
<rect x="685.0" y="126.3" width="100" height="7.04" fill="#7d3c98"/>
<text x="735.0" y="120.3" class="body bar-total">463</text>
<text x="735.0" y="348.0" class="body axis-bold">3</text>
<rect x="855.0" y="310.6" width="100" height="19.36" fill="#1f3a5f"/>
<text x="905.0" y="324.3" class="body seg-label">44</text>
<rect x="855.0" y="278.5" width="100" height="32.12" fill="#d68910"/>
<text x="905.0" y="298.6" class="body seg-label">73</text>
<rect x="855.0" y="245.1" width="100" height="33.44" fill="#28a745"/>
<text x="905.0" y="265.8" class="body seg-label">76</text>
<rect x="855.0" y="232.3" width="100" height="12.76" fill="#c0392b"/>
<rect x="855.0" y="218.2" width="100" height="14.08" fill="#3498db"/>
<rect x="855.0" y="217.8" width="100" height="0.44" fill="#7d3c98"/>
<text x="905.0" y="211.8" class="body bar-total">255</text>
<text x="905.0" y="348.0" class="body axis-bold">4</text>
<rect x="1025.0" y="328.2" width="100" height="1.76" fill="#1f3a5f"/>
<rect x="1025.0" y="325.6" width="100" height="2.64" fill="#d68910"/>
<rect x="1025.0" y="320.8" width="100" height="4.84" fill="#28a745"/>
<rect x="1025.0" y="313.7" width="100" height="7.04" fill="#c0392b"/>
<rect x="1025.0" y="303.2" width="100" height="10.56" fill="#3498db"/>
<rect x="1025.0" y="288.6" width="100" height="14.52" fill="#7d3c98"/>
<text x="1075.0" y="282.6" class="body bar-total">94</text>
<text x="1075.0" y="348.0" class="body axis-bold">5</text>
<text x="225.0" y="362.0" class="body axis" text-anchor="middle">locked</text>
<text x="395.0" y="362.0" class="body axis" text-anchor="middle">single primary</text>
<text x="565.0" y="362.0" class="body axis" text-anchor="middle">multi-API</text>
<text x="735.0" y="362.0" class="body axis" text-anchor="middle">+ local opt</text>
<text x="905.0" y="362.0" class="body axis" text-anchor="middle">swap by config</text>
<text x="1075.0" y="362.0" class="body axis" text-anchor="middle">config-only</text>
<text x="40" y="380" class="body h2">Per-category distribution <tspan class="sub">(each chart's y-axis is independently scaled — read shape, not height)</tspan></text>
<rect x="40" y="400" width="360" height="130" rx="6" fill="#f7f9fc" stroke="#e6e9ee" stroke-width="1"/>
<rect x="40" y="400" width="6" height="130" rx="3" fill="#1f3a5f"/>
<text x="56" y="418" class="body mini-title">governance</text>
<text x="388" y="418" class="body mini-count" text-anchor="end">107 entries</text>
<line x1="72.7" y1="503" x2="108.7" y2="503" stroke="#cfd6df" stroke-width="2"/>
<text x="90.7" y="516.0" class="body mini-axis">0</text>
<line x1="126.0" y1="503" x2="162.0" y2="503" stroke="#cfd6df" stroke-width="2"/>
<text x="144.0" y="516.0" class="body mini-axis">1</text>
<line x1="179.3" y1="503" x2="215.3" y2="503" stroke="#cfd6df" stroke-width="2"/>
<text x="197.3" y="516.0" class="body mini-axis">2</text>
<rect x="232.7" y="428.00" width="36" height="76.00" rx="2" fill="#1f3a5f" opacity="0.85"/>
<text x="250.7" y="424.0" class="body mini-bar-label">59</text>
<text x="250.7" y="516.0" class="body mini-axis">3</text>
<rect x="286.0" y="447.32" width="36" height="56.68" rx="2" fill="#1f3a5f" opacity="0.85"/>
<text x="304.0" y="443.3" class="body mini-bar-label">44</text>
<text x="304.0" y="516.0" class="body mini-axis">4</text>
<rect x="339.3" y="498.85" width="36" height="5.15" rx="2" fill="#1f3a5f" opacity="0.85"/>
<text x="357.3" y="494.8" class="body mini-bar-label">4</text>
<text x="357.3" y="516.0" class="body mini-axis">5</text>
<rect x="420" y="400" width="360" height="130" rx="6" fill="#f7f9fc" stroke="#e6e9ee" stroke-width="1"/>
<rect x="420" y="400" width="6" height="130" rx="3" fill="#d68910"/>
<text x="436" y="418" class="body mini-title">agent</text>
<text x="768" y="418" class="body mini-count" text-anchor="end">251 entries</text>
<line x1="452.7" y1="503" x2="488.7" y2="503" stroke="#cfd6df" stroke-width="2"/>
<text x="470.7" y="516.0" class="body mini-axis">0</text>
<rect x="506.0" y="503.55" width="36" height="0.45" rx="2" fill="#d68910" opacity="0.85"/>
<text x="524.0" y="499.6" class="body mini-bar-label">1</text>
<text x="524.0" y="516.0" class="body mini-axis">1</text>
<rect x="559.3" y="503.55" width="36" height="0.45" rx="2" fill="#d68910" opacity="0.85"/>
<text x="577.3" y="499.6" class="body mini-bar-label">1</text>
<text x="577.3" y="516.0" class="body mini-axis">2</text>
<rect x="612.7" y="428.00" width="36" height="76.00" rx="2" fill="#d68910" opacity="0.85"/>
<text x="630.7" y="424.0" class="body mini-bar-label">170</text>
<text x="630.7" y="516.0" class="body mini-axis">3</text>
<rect x="666.0" y="471.36" width="36" height="32.64" rx="2" fill="#d68910" opacity="0.85"/>
<text x="684.0" y="467.4" class="body mini-bar-label">73</text>
<text x="684.0" y="516.0" class="body mini-axis">4</text>
<rect x="719.3" y="501.32" width="36" height="2.68" rx="2" fill="#d68910" opacity="0.85"/>
<text x="737.3" y="497.3" class="body mini-bar-label">6</text>
<text x="737.3" y="516.0" class="body mini-axis">5</text>
<rect x="800" y="400" width="360" height="130" rx="6" fill="#f7f9fc" stroke="#e6e9ee" stroke-width="1"/>
<rect x="800" y="400" width="6" height="130" rx="3" fill="#28a745"/>
<text x="816" y="418" class="body mini-title">eval</text>
<text x="1148" y="418" class="body mini-count" text-anchor="end">210 entries</text>
<line x1="832.7" y1="503" x2="868.7" y2="503" stroke="#cfd6df" stroke-width="2"/>
<text x="850.7" y="516.0" class="body mini-axis">0</text>
<line x1="886.0" y1="503" x2="922.0" y2="503" stroke="#cfd6df" stroke-width="2"/>
<text x="904.0" y="516.0" class="body mini-axis">1</text>
<line x1="939.3" y1="503" x2="975.3" y2="503" stroke="#cfd6df" stroke-width="2"/>
<text x="957.3" y="516.0" class="body mini-axis">2</text>
<rect x="992.7" y="428.00" width="36" height="76.00" rx="2" fill="#28a745" opacity="0.85"/>
<text x="1010.7" y="424.0" class="body mini-bar-label">123</text>
<text x="1010.7" y="516.0" class="body mini-axis">3</text>
<rect x="1046.0" y="457.04" width="36" height="46.96" rx="2" fill="#28a745" opacity="0.85"/>
<text x="1064.0" y="453.0" class="body mini-bar-label">76</text>
<text x="1064.0" y="516.0" class="body mini-axis">4</text>
<rect x="1099.3" y="497.20" width="36" height="6.80" rx="2" fill="#28a745" opacity="0.85"/>
<text x="1117.3" y="493.2" class="body mini-bar-label">11</text>
<text x="1117.3" y="516.0" class="body mini-axis">5</text>
<rect x="40" y="560" width="360" height="130" rx="6" fill="#f7f9fc" stroke="#e6e9ee" stroke-width="1"/>
<rect x="40" y="560" width="6" height="130" rx="3" fill="#c0392b"/>
<text x="56" y="578" class="body mini-title">redteam</text>
<text x="388" y="578" class="body mini-count" text-anchor="end">102 entries</text>
<line x1="72.7" y1="663" x2="108.7" y2="663" stroke="#cfd6df" stroke-width="2"/>
<text x="90.7" y="676.0" class="body mini-axis">0</text>
<line x1="126.0" y1="663" x2="162.0" y2="663" stroke="#cfd6df" stroke-width="2"/>
<text x="144.0" y="676.0" class="body mini-axis">1</text>
<line x1="179.3" y1="663" x2="215.3" y2="663" stroke="#cfd6df" stroke-width="2"/>
<text x="197.3" y="676.0" class="body mini-axis">2</text>
<rect x="232.7" y="588.00" width="36" height="76.00" rx="2" fill="#c0392b" opacity="0.85"/>
<text x="250.7" y="584.0" class="body mini-bar-label">57</text>
<text x="250.7" y="676.0" class="body mini-axis">3</text>
<rect x="286.0" y="625.33" width="36" height="38.67" rx="2" fill="#c0392b" opacity="0.85"/>
<text x="304.0" y="621.3" class="body mini-bar-label">29</text>
<text x="304.0" y="676.0" class="body mini-axis">4</text>
<rect x="339.3" y="642.67" width="36" height="21.33" rx="2" fill="#c0392b" opacity="0.85"/>
<text x="357.3" y="638.7" class="body mini-bar-label">16</text>
<text x="357.3" y="676.0" class="body mini-axis">5</text>
<rect x="420" y="560" width="360" height="130" rx="6" fill="#f7f9fc" stroke="#e6e9ee" stroke-width="1"/>
<rect x="420" y="560" width="6" height="130" rx="3" fill="#3498db"/>
<text x="436" y="578" class="body mini-title">routing</text>
<text x="768" y="578" class="body mini-count" text-anchor="end">95 entries</text>
<line x1="452.7" y1="663" x2="488.7" y2="663" stroke="#cfd6df" stroke-width="2"/>
<text x="470.7" y="676.0" class="body mini-axis">0</text>
<line x1="506.0" y1="663" x2="542.0" y2="663" stroke="#cfd6df" stroke-width="2"/>
<text x="524.0" y="676.0" class="body mini-axis">1</text>
<rect x="559.3" y="662.00" width="36" height="2.00" rx="2" fill="#3498db" opacity="0.85"/>
<text x="577.3" y="658.0" class="body mini-bar-label">1</text>
<text x="577.3" y="676.0" class="body mini-axis">2</text>
<rect x="612.7" y="588.00" width="36" height="76.00" rx="2" fill="#3498db" opacity="0.85"/>
<text x="630.7" y="584.0" class="body mini-bar-label">38</text>
<text x="630.7" y="676.0" class="body mini-axis">3</text>
<rect x="666.0" y="600.00" width="36" height="64.00" rx="2" fill="#3498db" opacity="0.85"/>
<text x="684.0" y="596.0" class="body mini-bar-label">32</text>
<text x="684.0" y="676.0" class="body mini-axis">4</text>
<rect x="719.3" y="616.00" width="36" height="48.00" rx="2" fill="#3498db" opacity="0.85"/>
<text x="737.3" y="612.0" class="body mini-bar-label">24</text>
<text x="737.3" y="676.0" class="body mini-axis">5</text>
<rect x="800" y="560" width="360" height="130" rx="6" fill="#f7f9fc" stroke="#e6e9ee" stroke-width="1"/>
<rect x="800" y="560" width="6" height="130" rx="3" fill="#7d3c98"/>
<text x="816" y="578" class="body mini-title">education</text>
<text x="1148" y="578" class="body mini-count" text-anchor="end">51 entries</text>
<line x1="832.7" y1="663" x2="868.7" y2="663" stroke="#cfd6df" stroke-width="2"/>
<text x="850.7" y="676.0" class="body mini-axis">0</text>
<rect x="886.0" y="661.70" width="36" height="2.30" rx="2" fill="#7d3c98" opacity="0.85"/>
<text x="904.0" y="657.7" class="body mini-bar-label">1</text>
<text x="904.0" y="676.0" class="body mini-axis">1</text>
<line x1="939.3" y1="663" x2="975.3" y2="663" stroke="#cfd6df" stroke-width="2"/>
<text x="957.3" y="676.0" class="body mini-axis">2</text>
<rect x="992.7" y="627.15" width="36" height="36.85" rx="2" fill="#7d3c98" opacity="0.85"/>
<text x="1010.7" y="623.2" class="body mini-bar-label">16</text>
<text x="1010.7" y="676.0" class="body mini-axis">3</text>
<rect x="1046.0" y="661.70" width="36" height="2.30" rx="2" fill="#7d3c98" opacity="0.85"/>
<text x="1064.0" y="657.7" class="body mini-bar-label">1</text>
<text x="1064.0" y="676.0" class="body mini-axis">4</text>
<rect x="1099.3" y="588.00" width="36" height="76.00" rx="2" fill="#7d3c98" opacity="0.85"/>
<text x="1117.3" y="584.0" class="body mini-bar-label">33</text>
<text x="1117.3" y="676.0" class="body mini-axis">5</text>
<text x="600" y="704" class="body footer">CC BY-SA 4.0 — open-harness-atlas · generated by scripts/build_visuals.py::_build_spectrum</text>
</svg>
